# Blender v3.0.0 OBJ File: 'bullets.blend'
# www.blender.org
mtllib bullets.mtl
o Cylinder
v 0.000000 -1.863227 -1.000000
v -0.000000 1.863227 -0.925690
v 0.382683 -1.863227 -0.923880
v 0.354246 1.863227 -0.855226
v 0.707107 -1.863227 -0.707107
v 0.654562 1.863227 -0.654562
v 0.923880 -1.863227 -0.382683
v 0.855226 1.863227 -0.354246
v 1.000000 -1.863227 0.000000
v 0.925690 1.863227 0.000000
v 0.923880 -1.863227 0.382683
v 0.855227 1.863227 0.354246
v 0.707107 -1.863227 0.707107
v 0.654562 1.863227 0.654562
v 0.382683 -1.863227 0.923880
v 0.354246 1.863227 0.855226
v -0.000000 -1.863227 1.000000
v -0.000000 1.863227 0.925690
v -0.382683 -1.863227 0.923880
v -0.354246 1.863227 0.855226
v -0.707107 -1.863227 0.707107
v -0.654562 1.863227 0.654562
v -0.923880 -1.863227 0.382684
v -0.855226 1.863227 0.354247
v -1.000000 -1.863227 -0.000000
v -0.925690 1.863227 -0.000000
v -0.923879 -1.863227 -0.382684
v -0.855226 1.863227 -0.354247
v -0.707107 -1.863227 -0.707107
v -0.654562 1.863227 -0.654562
v -0.382683 -1.863227 -0.923880
v -0.354246 1.863227 -0.855227
v 0.000000 -2.159704 -0.839235
v 0.321161 -2.159704 -0.775352
v 0.593429 -2.159704 -0.593429
v 0.775352 -2.159704 -0.321161
v 0.839235 -2.159704 0.000000
v 0.775352 -2.159704 0.321161
v 0.593429 -2.159704 0.593429
v 0.321161 -2.159704 0.775352
v -0.000000 -2.159704 0.839235
v -0.321161 -2.159704 0.775352
v -0.593429 -2.159704 0.593429
v -0.775352 -2.159704 0.321161
v -0.839235 -2.159704 -0.000000
v -0.775352 -2.159704 -0.321161
v -0.593429 -2.159704 -0.593429
v -0.321161 -2.159704 -0.775352
v 0.000000 -2.367238 -0.839235
v 0.321161 -2.367238 -0.775352
v 0.593429 -2.367238 -0.593429
v 0.775352 -2.367238 -0.321161
v 0.839235 -2.367238 0.000000
v 0.775352 -2.367238 0.321161
v 0.593429 -2.367238 0.593429
v 0.321161 -2.367238 0.775352
v -0.000000 -2.367238 0.839235
v -0.321161 -2.367238 0.775352
v -0.593429 -2.367238 0.593429
v -0.775352 -2.367238 0.321161
v -0.839235 -2.367238 -0.000000
v -0.775352 -2.367238 -0.321161
v -0.593429 -2.367238 -0.593429
v -0.321161 -2.367238 -0.775352
v 0.000000 -2.471004 -0.966326
v 0.369797 -2.471004 -0.892769
v 0.683296 -2.471004 -0.683296
v 0.892769 -2.471004 -0.369797
v 0.966326 -2.471004 0.000000
v 0.892769 -2.471004 0.369797
v 0.683296 -2.471004 0.683296
v 0.369797 -2.471004 0.892769
v -0.000000 -2.471004 0.966326
v -0.369797 -2.471004 0.892769
v -0.683296 -2.471004 0.683296
v -0.892769 -2.471004 0.369797
v -0.966326 -2.471004 -0.000000
v -0.892769 -2.471004 -0.369797
v -0.683296 -2.471004 -0.683295
v -0.369797 -2.471004 -0.892769
v -0.000000 -2.619243 -0.899728
v 0.344311 -2.619243 -0.831240
v 0.636204 -2.619243 -0.636204
v 0.831240 -2.619243 -0.344311
v 0.899728 -2.619243 0.000000
v 0.831240 -2.619243 0.344311
v 0.636204 -2.619243 0.636204
v 0.344311 -2.619243 0.831240
v -0.000000 -2.619243 0.899728
v -0.344311 -2.619243 0.831240
v -0.636204 -2.619243 0.636204
v -0.831240 -2.619243 0.344311
v -0.899728 -2.619243 -0.000000
v -0.831240 -2.619243 -0.344311
v -0.636204 -2.619243 -0.636204
v -0.344311 -2.619243 -0.831240
v -0.000000 -2.767481 -0.966326
v 0.369797 -2.767481 -0.892769
v 0.683296 -2.767481 -0.683296
v 0.892769 -2.767481 -0.369797
v 0.966326 -2.767481 0.000000
v 0.892769 -2.767481 0.369797
v 0.683296 -2.767481 0.683296
v 0.369797 -2.767481 0.892769
v -0.000000 -2.767481 0.966326
v -0.369797 -2.767481 0.892769
v -0.683296 -2.767481 0.683296
v -0.892769 -2.767481 0.369797
v -0.966326 -2.767481 -0.000000
v -0.892769 -2.767481 -0.369797
v -0.683296 -2.767481 -0.683295
v -0.369797 -2.767481 -0.892769
v 0.382683 1.863227 -0.923880
v 0.000000 1.863227 -1.000000
v 0.707107 1.863227 -0.707107
v 0.923880 1.863227 -0.382683
v 1.000000 1.863227 0.000000
v 0.923880 1.863227 0.382683
v 0.707107 1.863227 0.707107
v 0.382683 1.863227 0.923880
v -0.000000 1.863227 1.000000
v -0.382683 1.863227 0.923880
v -0.707107 1.863227 0.707107
v -0.923880 1.863227 0.382684
v -1.000000 1.863227 -0.000000
v -0.923879 1.863227 -0.382684
v -0.707107 1.863227 -0.707107
v -0.382683 1.863227 -0.923880
v 0.000000 3.680503 0.000000
v 0.284462 3.444869 0.284462
v 0.153950 3.444869 0.371668
v -0.284462 3.444869 -0.284462
v -0.153950 3.444869 -0.371668
v -0.000000 3.444869 0.402290
v -0.000000 3.444869 -0.402290
v 0.153950 3.444869 -0.371668
v -0.153950 3.444869 0.371668
v 0.284462 3.444869 -0.284462
v -0.284462 3.444869 0.284462
v 0.371668 3.444869 -0.153950
v -0.371668 3.444869 0.153950
v 0.402290 3.444869 0.000000
v -0.402290 3.444869 0.000000
v 0.371668 3.444869 0.153950
v -0.371668 3.444869 -0.153950
v 0.302998 2.526077 0.731502
v -0.302998 2.526077 -0.731503
v -0.000000 2.526077 0.791773
v 0.302998 2.526077 -0.731502
v -0.302998 2.526077 0.731502
v 0.559868 2.526077 -0.559868
v -0.559868 2.526077 0.559868
v 0.731502 2.526077 -0.302998
v -0.731502 2.526077 0.302998
v 0.791773 2.526077 0.000000
v -0.791773 2.526077 -0.000000
v 0.731503 2.526077 0.302998
v -0.731502 2.526077 -0.302998
v 0.559868 2.526077 0.559868
v -0.559868 2.526077 -0.559868
v -0.000000 2.526077 -0.791773
v 0.451758 2.949840 0.451758
v -0.451758 2.949840 -0.451758
v -0.000000 2.949840 -0.638882
v 0.244490 2.949840 0.590250
v -0.244490 2.949840 -0.590250
v -0.000000 2.949840 0.638882
v 0.244490 2.949840 -0.590250
v -0.244490 2.949840 0.590250
v 0.451758 2.949840 -0.451758
v -0.451758 2.949840 0.451758
v 0.590250 2.949840 -0.244490
v -0.590250 2.949840 0.244490
v 0.638882 2.949840 0.000000
v -0.638882 2.949840 -0.000000
v 0.590250 2.949840 0.244490
v -0.590250 2.949840 -0.244490
vt 1.000000 0.500000
vt 1.000000 1.000000
vt 0.937500 1.000000
vt 0.937500 0.500000
vt 0.875000 1.000000
vt 0.875000 0.500000
vt 0.812500 1.000000
vt 0.812500 0.500000
vt 0.750000 1.000000
vt 0.750000 0.500000
vt 0.687500 1.000000
vt 0.687500 0.500000
vt 0.625000 1.000000
vt 0.625000 0.500000
vt 0.562500 1.000000
vt 0.562500 0.500000
vt 0.500000 1.000000
vt 0.500000 0.500000
vt 0.437500 1.000000
vt 0.437500 0.500000
vt 0.375000 1.000000
vt 0.375000 0.500000
vt 0.312500 1.000000
vt 0.312500 0.500000
vt 0.250000 1.000000
vt 0.250000 0.500000
vt 0.187500 1.000000
vt 0.187500 0.500000
vt 0.125000 1.000000
vt 0.125000 0.500000
vt 0.335019 0.044746
vt 0.407095 0.092905
vt 0.335019 0.044746
vt 0.062500 1.000000
vt 0.062500 0.500000
vt 0.000000 1.000000
vt 0.000000 0.500000
vt 0.875000 0.500000
vt 0.937500 0.500000
vt 0.562500 0.500000
vt 0.500000 0.500000
vt 0.500000 0.500000
vt 0.562500 0.500000
vt 0.625000 0.500000
vt 0.250000 0.500000
vt 0.312500 0.500000
vt 0.687500 0.500000
vt 0.750000 0.500000
vt 0.375000 0.500000
vt 0.437500 0.500000
vt 0.062500 0.500000
vt 0.125000 0.500000
vt 0.812500 0.500000
vt 1.000000 0.500000
vt 0.187500 0.500000
vt 0.000000 0.500000
vt 0.250000 0.500000
vt 0.187500 0.500000
vt 0.187500 0.500000
vt 0.250000 0.500000
vt 0.937500 0.500000
vt 1.000000 0.500000
vt 0.000000 0.500000
vt 0.062500 0.500000
vt 0.437500 0.500000
vt 0.875000 0.500000
vt 0.375000 0.500000
vt 0.812500 0.500000
vt 0.312500 0.500000
vt 0.750000 0.500000
vt 0.687500 0.500000
vt 0.625000 0.500000
vt 0.125000 0.500000
vt 0.375000 0.500000
vt 0.312500 0.500000
vt 0.312500 0.500000
vt 0.375000 0.500000
vt 0.625000 0.500000
vt 0.687500 0.500000
vt 0.125000 0.500000
vt 0.562500 0.500000
vt 0.062500 0.500000
vt 0.500000 0.500000
vt 0.937500 0.500000
vt 1.000000 0.500000
vt 0.000000 0.500000
vt 0.437500 0.500000
vt 0.875000 0.500000
vt 0.812500 0.500000
vt 0.750000 0.500000
vt 1.000000 0.500000
vt 0.937500 0.500000
vt 0.937500 0.500000
vt 1.000000 0.500000
vt 0.750000 0.500000
vt 0.812500 0.500000
vt 0.250000 0.500000
vt 0.687500 0.500000
vt 0.187500 0.500000
vt 0.625000 0.500000
vt 0.125000 0.500000
vt 0.562500 0.500000
vt 0.062500 0.500000
vt 0.500000 0.500000
vt 0.000000 0.500000
vt 0.437500 0.500000
vt 0.875000 0.500000
vt 0.750000 0.490000
vt 0.841844 0.471731
vt 0.919706 0.419706
vt 0.971731 0.341844
vt 0.990000 0.250000
vt 0.971731 0.158156
vt 0.919706 0.080294
vt 0.841844 0.028269
vt 0.750000 0.010000
vt 0.658156 0.028269
vt 0.580294 0.080294
vt 0.528269 0.158156
vt 0.510000 0.250000
vt 0.528269 0.341844
vt 0.580294 0.419706
vt 0.658156 0.471731
vt 0.000000 0.500000
vt 0.062500 0.500000
vt 0.437500 0.500000
vt 0.500000 0.500000
vt 0.875000 0.500000
vt 0.375000 0.500000
vt 0.812500 0.500000
vt 0.312500 0.500000
vt 0.750000 0.500000
vt 0.250000 0.500000
vt 0.687500 0.500000
vt 0.187500 0.500000
vt 0.625000 0.500000
vt 0.125000 0.500000
vt 0.562500 0.500000
vt 0.250000 0.472166
vt 0.335019 0.455254
vt 0.341844 0.471731
vt 0.250000 0.490000
vt 0.407095 0.407095
vt 0.419706 0.419706
vt 0.455254 0.335019
vt 0.471731 0.341844
vt 0.472166 0.250000
vt 0.490000 0.250000
vt 0.455254 0.164981
vt 0.471731 0.158156
vt 0.407095 0.092905
vt 0.419706 0.080294
vt 0.335019 0.044746
vt 0.341844 0.028269
vt 0.250000 0.027834
vt 0.250000 0.010000
vt 0.164981 0.044746
vt 0.158156 0.028269
vt 0.092905 0.092905
vt 0.080294 0.080294
vt 0.044746 0.164981
vt 0.028269 0.158156
vt 0.027834 0.250000
vt 0.010000 0.250000
vt 0.044746 0.335019
vt 0.028269 0.341844
vt 0.092905 0.407095
vt 0.080294 0.419706
vt 0.164981 0.455254
vt 0.158156 0.471731
vt 0.164981 0.455254
vt 0.092905 0.407095
vt 0.164981 0.455254
vt 0.250000 0.027834
vt 0.250000 0.027834
vt 0.335019 0.455254
vt 0.250000 0.472166
vt 0.335019 0.455254
vt 0.250000 0.472166
vt 0.164981 0.044746
vt 0.164981 0.044746
vt 0.407095 0.407095
vt 0.407095 0.407095
vt 0.092905 0.092905
vt 0.092905 0.092905
vt 0.455254 0.335019
vt 0.455254 0.335019
vt 0.044746 0.164981
vt 0.044746 0.164981
vt 0.472166 0.250000
vt 0.472166 0.250000
vt 0.027834 0.250000
vt 0.027834 0.250000
vt 0.455254 0.164981
vt 0.455254 0.164981
vt 0.044746 0.335019
vt 0.044746 0.335019
vt 0.407095 0.092905
vt 0.092905 0.407095
vt 0.092905 0.407095
vt 0.044746 0.335019
vt 0.407095 0.092905
vt 0.455254 0.164981
vt 0.027834 0.250000
vt 0.472166 0.250000
vt 0.044746 0.164981
vt 0.455254 0.335019
vt 0.092905 0.092905
vt 0.407095 0.407095
vt 0.164981 0.044746
vt 0.335019 0.455254
vt 0.250000 0.027834
vt 0.250000 0.472166
vt 0.164981 0.455254
vt 0.335019 0.044746
vt 0.407095 0.092905
vt 0.335019 0.044746
vt 0.092905 0.407095
vt 0.164981 0.455254
vt 0.250000 0.027834
vt 0.250000 0.472166
vt 0.335019 0.455254
vt 0.164981 0.044746
vt 0.407095 0.407095
vt 0.092905 0.092905
vt 0.455254 0.335019
vt 0.044746 0.164981
vt 0.472166 0.250000
vt 0.027834 0.250000
vt 0.455254 0.164981
vt 0.044746 0.335019
vn 0.1951 0.0000 -0.9808
vn 0.5556 0.0000 -0.8315
vn 0.8315 0.0000 -0.5556
vn 0.9808 0.0000 -0.1951
vn 0.9808 0.0000 0.1951
vn 0.8315 0.0000 0.5556
vn 0.5556 0.0000 0.8315
vn 0.1951 0.0000 0.9808
vn -0.1951 0.0000 0.9808
vn -0.5556 0.0000 0.8315
vn -0.8315 0.0000 0.5556
vn -0.9808 0.0000 0.1951
vn -0.9808 0.0000 -0.1951
vn -0.8315 0.0000 -0.5556
vn 0.2849 0.8585 0.4263
vn -0.5556 0.0000 -0.8315
vn -0.1951 0.0000 -0.9808
vn 0.4905 -0.4696 -0.7341
vn 0.4905 -0.4696 0.7341
vn -0.8659 -0.4696 0.1722
vn 0.8659 -0.4696 0.1722
vn -0.4905 -0.4696 0.7341
vn -0.4905 -0.4696 -0.7341
vn 0.7341 -0.4696 -0.4905
vn 0.1722 -0.4696 0.8659
vn 0.1722 -0.4696 -0.8659
vn -0.8659 -0.4696 -0.1722
vn 0.7341 -0.4696 0.4905
vn -0.7341 -0.4696 0.4905
vn -0.1722 -0.4696 -0.8659
vn 0.8659 -0.4696 -0.1722
vn -0.1722 -0.4696 0.8659
vn -0.7341 -0.4696 -0.4905
vn -0.6275 0.7685 -0.1248
vn -0.7609 -0.4032 0.5084
vn 0.5320 0.7685 0.3555
vn -0.5320 0.7685 -0.3555
vn 0.3555 0.7685 0.5320
vn -0.3555 0.7685 -0.5320
vn 0.1248 0.7685 0.6275
vn 0.1248 0.7685 -0.6275
vn -0.1248 0.7685 -0.6275
vn -0.1248 0.7685 0.6275
vn 0.3555 0.7685 -0.5320
vn -0.3555 0.7685 0.5320
vn 0.5320 0.7685 -0.3555
vn -0.5320 0.7685 0.3555
vn 0.6275 0.7685 -0.1248
vn -0.6275 0.7685 0.1248
vn 0.6275 0.7685 0.1248
vn 0.1785 0.4032 -0.8975
vn 0.8975 -0.4032 -0.1785
vn -0.8975 -0.4032 0.1785
vn 0.8975 -0.4032 0.1785
vn -0.8975 -0.4032 -0.1785
vn 0.7609 -0.4032 0.5084
vn -0.7609 -0.4032 -0.5084
vn 0.5084 -0.4032 0.7609
vn -0.5084 -0.4032 -0.7609
vn 0.1785 -0.4032 0.8975
vn 0.1785 -0.4032 -0.8975
vn -0.1785 -0.4032 -0.8975
vn -0.1785 -0.4032 0.8975
vn 0.5084 -0.4032 -0.7609
vn -0.5084 -0.4032 0.7609
vn 0.7609 -0.4032 -0.5084
vn 0.0000 -1.0000 0.0000
vn -0.1785 0.4032 -0.8975
vn -0.1785 0.4032 0.8975
vn 0.5084 0.4032 -0.7609
vn -0.5084 0.4032 0.7609
vn 0.7609 0.4032 -0.5084
vn -0.7609 0.4032 0.5084
vn 0.8975 0.4032 -0.1785
vn -0.8975 0.4032 0.1785
vn 0.8975 0.4032 0.1785
vn -0.8975 0.4032 -0.1785
vn 0.7609 0.4032 0.5084
vn -0.7609 0.4032 -0.5084
vn 0.5084 0.4032 0.7609
vn -0.5084 0.4032 -0.7609
vn 0.1785 0.4032 0.8975
vn 0.0000 1.0000 0.0000
vn -0.2849 0.8585 -0.4263
vn 0.1000 0.8585 0.5029
vn 0.1000 0.8585 -0.5029
vn -0.1000 0.8585 -0.5029
vn -0.1000 0.8585 0.5029
vn 0.2849 0.8585 -0.4263
vn -0.2849 0.8585 0.4263
vn 0.4263 0.8585 -0.2849
vn -0.4263 0.8585 0.2849
vn 0.5029 0.8585 -0.1000
vn -0.5029 0.8585 0.1000
vn 0.5029 0.8585 0.1000
vn -0.5029 0.8585 -0.1000
vn 0.4263 0.8585 0.2849
vn -0.4263 0.8585 -0.2849
vn -0.7529 0.4244 -0.5030
vn 0.7529 0.4244 0.5030
vn -0.8881 0.4244 -0.1766
vn 0.8881 0.4244 0.1766
vn -0.8881 0.4244 0.1766
vn 0.8881 0.4244 -0.1766
vn -0.7529 0.4244 0.5030
vn 0.7529 0.4244 -0.5030
vn -0.5030 0.4244 0.7529
vn 0.5030 0.4244 -0.7529
vn -0.1766 0.4244 0.8881
vn -0.1766 0.4244 -0.8881
vn 0.1766 0.4244 -0.8881
vn 0.1766 0.4244 0.8881
vn -0.5030 0.4244 -0.7529
vn 0.5030 0.4244 0.7529
vn 0.5450 0.1944 0.8156
vn -0.5450 0.1944 -0.8156
vn 0.1914 0.1944 0.9621
vn 0.1914 0.1944 -0.9621
vn -0.1914 0.1944 -0.9621
vn -0.1914 0.1944 0.9621
vn 0.5450 0.1944 -0.8156
vn -0.5450 0.1944 0.8156
vn 0.8156 0.1944 -0.5450
vn -0.8156 0.1944 0.5450
vn 0.9621 0.1944 -0.1914
vn -0.9621 0.1944 0.1914
vn 0.9621 0.1944 0.1914
vn -0.9621 0.1944 -0.1914
vn 0.8156 0.1944 0.5450
vn -0.8156 0.1944 -0.5450
vn 0.5237 0.3336 0.7838
vn -0.5237 0.3336 -0.7838
vn 0.1839 0.3336 0.9246
vn 0.1839 0.3336 -0.9246
vn -0.1839 0.3336 -0.9246
vn -0.1839 0.3336 0.9246
vn 0.5237 0.3336 -0.7838
vn -0.5237 0.3336 0.7838
vn 0.7838 0.3336 -0.5237
vn -0.7838 0.3336 0.5237
vn 0.9246 0.3336 -0.1839
vn -0.9246 0.3336 0.1839
vn 0.9246 0.3336 0.1839
vn -0.9246 0.3336 -0.1839
vn 0.7838 0.3336 0.5237
vn -0.7838 0.3336 -0.5237
usemtl Material.002
s off
f 1/1/1 114/2/1 113/3/1 3/4/1
f 3/4/2 113/3/2 115/5/2 5/6/2
f 5/6/3 115/5/3 116/7/3 7/8/3
f 7/8/4 116/7/4 117/9/4 9/10/4
f 9/10/5 117/9/5 118/11/5 11/12/5
f 11/12/6 118/11/6 119/13/6 13/14/6
f 13/14/7 119/13/7 120/15/7 15/16/7
f 15/16/8 120/15/8 121/17/8 17/18/8
f 17/18/9 121/17/9 122/19/9 19/20/9
f 19/20/10 122/19/10 123/21/10 21/22/10
f 21/22/11 123/21/11 124/23/11 23/24/11
f 23/24/12 124/23/12 125/25/12 25/26/12
f 25/26/13 125/25/13 126/27/13 27/28/13
f 27/28/14 126/27/14 127/29/14 29/30/14
f 131/31/15 130/32/15 129/33/15
f 29/30/16 127/29/16 128/34/16 31/35/16
f 31/35/17 128/34/17 114/36/17 1/37/17
f 3/4/18 5/6/18 35/38/18 34/39/18
f 40/40/8 41/41/8 57/42/8 56/43/8
f 13/14/19 15/16/19 40/40/19 39/44/19
f 23/24/20 25/26/20 45/45/20 44/46/20
f 9/10/21 11/12/21 38/47/21 37/48/21
f 19/20/22 21/22/22 43/49/22 42/50/22
f 29/30/23 31/35/23 48/51/23 47/52/23
f 5/6/24 7/8/24 36/53/24 35/38/24
f 15/16/25 17/18/25 41/41/25 40/40/25
f 1/1/26 3/4/26 34/39/26 33/54/26
f 25/26/27 27/28/27 46/55/27 45/45/27
f 11/12/28 13/14/28 39/44/28 38/47/28
f 21/22/29 23/24/29 44/46/29 43/49/29
f 31/35/30 1/37/30 33/56/30 48/51/30
f 7/8/31 9/10/31 37/48/31 36/53/31
f 17/18/32 19/20/32 42/50/32 41/41/32
f 27/28/33 29/30/33 47/52/33 46/55/33
f 61/57/34 62/58/34 78/59/34 77/60/34
f 33/54/1 34/39/1 50/61/1 49/62/1
f 48/51/17 33/56/17 49/63/17 64/64/17
f 41/41/9 42/50/9 58/65/9 57/42/9
f 34/39/2 35/38/2 51/66/2 50/61/2
f 42/50/10 43/49/10 59/67/10 58/65/10
f 35/38/3 36/53/3 52/68/3 51/66/3
f 43/49/11 44/46/11 60/69/11 59/67/11
f 36/53/4 37/48/4 53/70/4 52/68/4
f 44/46/12 45/45/12 61/57/12 60/69/12
f 37/48/5 38/47/5 54/71/5 53/70/5
f 45/45/13 46/55/13 62/58/13 61/57/13
f 38/47/6 39/44/6 55/72/6 54/71/6
f 46/55/14 47/52/14 63/73/14 62/58/14
f 39/44/7 40/40/7 56/43/7 55/72/7
f 47/52/16 48/51/16 64/64/16 63/73/16
f 75/74/35 76/75/35 92/76/35 91/77/35
f 54/71/36 55/72/36 71/78/36 70/79/36
f 62/58/37 63/73/37 79/80/37 78/59/37
f 55/72/38 56/43/38 72/81/38 71/78/38
f 63/73/39 64/64/39 80/82/39 79/80/39
f 56/43/40 57/42/40 73/83/40 72/81/40
f 49/62/41 50/61/41 66/84/41 65/85/41
f 64/64/42 49/63/42 65/86/42 80/82/42
f 57/42/43 58/65/43 74/87/43 73/83/43
f 50/61/44 51/66/44 67/88/44 66/84/44
f 58/65/45 59/67/45 75/74/45 74/87/45
f 51/66/46 52/68/46 68/89/46 67/88/46
f 59/67/47 60/69/47 76/75/47 75/74/47
f 52/68/48 53/70/48 69/90/48 68/89/48
f 60/69/49 61/57/49 77/60/49 76/75/49
f 53/70/50 54/71/50 70/79/50 69/90/50
f 81/91/51 82/92/51 98/93/51 97/94/51
f 68/89/52 69/90/52 85/95/52 84/96/52
f 76/75/53 77/60/53 93/97/53 92/76/53
f 69/90/54 70/79/54 86/98/54 85/95/54
f 77/60/55 78/59/55 94/99/55 93/97/55
f 70/79/56 71/78/56 87/100/56 86/98/56
f 78/59/57 79/80/57 95/101/57 94/99/57
f 71/78/58 72/81/58 88/102/58 87/100/58
f 79/80/59 80/82/59 96/103/59 95/101/59
f 72/81/60 73/83/60 89/104/60 88/102/60
f 65/85/61 66/84/61 82/92/61 81/91/61
f 80/82/62 65/86/62 81/105/62 96/103/62
f 73/83/63 74/87/63 90/106/63 89/104/63
f 66/84/64 67/88/64 83/107/64 82/92/64
f 74/87/65 75/74/65 91/77/65 90/106/65
f 67/88/66 68/89/66 84/96/66 83/107/66
f 97/108/67 98/109/67 99/110/67 100/111/67 101/112/67 102/113/67 103/114/67 104/115/67 105/116/67 106/117/67 107/118/67 108/119/67 109/120/67 110/121/67 111/122/67 112/123/67
f 96/103/68 81/105/68 97/124/68 112/125/68
f 89/104/69 90/106/69 106/126/69 105/127/69
f 82/92/70 83/107/70 99/128/70 98/93/70
f 90/106/71 91/77/71 107/129/71 106/126/71
f 83/107/72 84/96/72 100/130/72 99/128/72
f 91/77/73 92/76/73 108/131/73 107/129/73
f 84/96/74 85/95/74 101/132/74 100/130/74
f 92/76/75 93/97/75 109/133/75 108/131/75
f 85/95/76 86/98/76 102/134/76 101/132/76
f 93/97/77 94/99/77 110/135/77 109/133/77
f 86/98/78 87/100/78 103/136/78 102/134/78
f 94/99/79 95/101/79 111/137/79 110/135/79
f 87/100/80 88/102/80 104/138/80 103/136/80
f 95/101/81 96/103/81 112/125/81 111/137/81
f 88/102/82 89/104/82 105/127/82 104/138/82
f 2/139/83 4/140/83 113/141/83 114/142/83
f 4/140/83 6/143/83 115/144/83 113/141/83
f 6/143/83 8/145/83 116/146/83 115/144/83
f 8/145/83 10/147/83 117/148/83 116/146/83
f 10/147/83 12/149/83 118/150/83 117/148/83
f 12/149/83 14/151/83 119/152/83 118/150/83
f 14/151/83 16/153/83 120/154/83 119/152/83
f 16/153/83 18/155/83 121/156/83 120/154/83
f 18/155/83 20/157/83 122/158/83 121/156/83
f 20/157/83 22/159/83 123/160/83 122/158/83
f 22/159/83 24/161/83 124/162/83 123/160/83
f 24/161/83 26/163/83 125/164/83 124/162/83
f 26/163/83 28/165/83 126/166/83 125/164/83
f 28/165/83 30/167/83 127/168/83 126/166/83
f 30/167/83 32/169/83 128/170/83 127/168/83
f 32/169/83 2/139/83 114/142/83 128/170/83
f 133/171/84 132/172/84 129/173/84
f 134/174/85 131/31/85 129/175/85
f 136/176/86 135/177/86 129/178/86
f 135/177/87 133/171/87 129/179/87
f 137/180/88 134/174/88 129/181/88
f 138/182/89 136/176/89 129/183/89
f 139/184/90 137/180/90 129/185/90
f 140/186/91 138/182/91 129/187/91
f 141/188/92 139/184/92 129/189/92
f 142/190/93 140/186/93 129/191/93
f 143/192/94 141/188/94 129/193/94
f 144/194/95 142/190/95 129/195/95
f 145/196/96 143/192/96 129/197/96
f 130/32/97 144/194/97 129/198/97
f 132/172/98 145/196/98 129/199/98
f 163/200/99 177/201/99 145/196/99 132/172/99
f 162/202/100 176/203/100 144/194/100 130/32/100
f 177/201/101 175/204/101 143/192/101 145/196/101
f 176/203/102 174/205/102 142/190/102 144/194/102
f 175/204/103 173/206/103 141/188/103 143/192/103
f 174/205/104 172/207/104 140/186/104 142/190/104
f 173/206/105 171/208/105 139/184/105 141/188/105
f 172/207/106 170/209/106 138/182/106 140/186/106
f 171/208/107 169/210/107 137/180/107 139/184/107
f 170/209/108 168/211/108 136/176/108 138/182/108
f 169/210/109 167/212/109 134/174/109 137/180/109
f 164/213/110 166/214/110 133/171/110 135/177/110
f 168/211/111 164/213/111 135/177/111 136/176/111
f 167/212/112 165/215/112 131/31/112 134/174/112
f 166/214/113 163/200/113 132/172/113 133/171/113
f 165/215/114 162/202/114 130/32/114 131/31/114
f 16/153/115 14/151/115 159/216/115 146/217/115
f 32/169/116 30/167/116 160/218/116 147/219/116
f 18/155/117 16/153/117 146/217/117 148/220/117
f 4/140/118 2/139/118 161/221/118 149/222/118
f 2/139/119 32/169/119 147/219/119 161/221/119
f 20/157/120 18/155/120 148/220/120 150/223/120
f 6/143/121 4/140/121 149/222/121 151/224/121
f 22/159/122 20/157/122 150/223/122 152/225/122
f 8/145/123 6/143/123 151/224/123 153/226/123
f 24/161/124 22/159/124 152/225/124 154/227/124
f 10/147/125 8/145/125 153/226/125 155/228/125
f 26/163/126 24/161/126 154/227/126 156/229/126
f 12/149/127 10/147/127 155/228/127 157/230/127
f 28/165/128 26/163/128 156/229/128 158/231/128
f 14/151/129 12/149/129 157/230/129 159/216/129
f 30/167/130 28/165/130 158/231/130 160/218/130
f 146/217/131 159/216/131 162/202/131 165/215/131
f 147/219/132 160/218/132 163/200/132 166/214/132
f 148/220/133 146/217/133 165/215/133 167/212/133
f 149/222/134 161/221/134 164/213/134 168/211/134
f 161/221/135 147/219/135 166/214/135 164/213/135
f 150/223/136 148/220/136 167/212/136 169/210/136
f 151/224/137 149/222/137 168/211/137 170/209/137
f 152/225/138 150/223/138 169/210/138 171/208/138
f 153/226/139 151/224/139 170/209/139 172/207/139
f 154/227/140 152/225/140 171/208/140 173/206/140
f 155/228/141 153/226/141 172/207/141 174/205/141
f 156/229/142 154/227/142 173/206/142 175/204/142
f 157/230/143 155/228/143 174/205/143 176/203/143
f 158/231/144 156/229/144 175/204/144 177/201/144
f 159/216/145 157/230/145 176/203/145 162/202/145
f 160/218/146 158/231/146 177/201/146 163/200/146
