# Blender v3.0.0 OBJ File: ''
# www.blender.org
mtllib tunnel-inner.mtl
o Cube.001_Cube.003
v -1.000000 -1.000000 5.000000
v -1.000000 1.000000 5.000000
v -1.000000 -1.000000 -5.000000
v -1.000000 1.000000 -5.000000
v 1.000000 -1.000000 5.000000
v 1.000000 1.000000 5.000000
v 1.000000 -1.000000 -5.000000
v 1.000000 1.000000 -5.000000
vt 0.375000 0.750000
vt 0.625000 0.750000
vt 0.625000 0.500000
vt 0.375000 0.500000
vt 0.375000 0.250000
vt 0.375000 1.000000
vt 0.625000 0.250000
vt 0.875000 0.750000
vn -1.0000 0.0000 0.0000
vn 0.0000 1.0000 0.0000
vn 1.0000 0.0000 0.0000
usemtl None
s off
f 5/1/1 6/2/1 8/3/1 7/4/1
f 7/4/2 3/5/2 1/6/2 5/1/2
f 1/6/3 3/5/3 4/7/3 2/8/3
